<svg width="800" height="480" xmlns="http://www.w3.org/2000/svg" font-family="PT Mono">
    <!-- Background -->
    <rect width="800" height="480" fill="#ffffff"/>
    <rect x="0" y="0" width="410" height="305" fill="#ffffff" stroke="#000000" stroke-width="2"/>

    <svg x="-15" y="-15" width="205" height="205" viewBox="0 0 660 660" enable-background="new 0 0 1000 1000" xml:space="preserve"><rect x="280" y="80" width="20" height="20" fill="rgb(0,0,0)" fill-opacity="1.0" shape-rendering="crispEdges"/><rect x="300" y="80" width="20" height="20" fill="rgb(0,0,0)" fill-opacity="1.0" shape-rendering="crispEdges"/><rect x="360" y="80" width="20" height="20" fill="rgb(0,0,0)" fill-opacity="1.0" shape-rendering="crispEdges"/><rect x="380" y="80" width="20" height="20" fill="rgb(0,0,0)" fill-opacity="1.0" shape-rendering="crispEdges"/><rect x="260" y="100" width="20" height="20" fill="rgb(0,0,0)" fill-opacity="1.0" shape-rendering="crispEdges"/><rect x="280" y="100" width="20" height="20" fill="rgb(0,0,0)" fill-opacity="1.0" shape-rendering="crispEdges"/><rect x="320" y="100" width="20" height="20" fill="rgb(0,0,0)" fill-opacity="1.0" shape-rendering="crispEdges"/><rect x="340" y="100" width="20" height="20" fill="rgb(0,0,0)" fill-opacity="1.0" shape-rendering="crispEdges"/><rect x="380" y="100" width="20" height="20" fill="rgb(0,0,0)" fill-opacity="1.0" shape-rendering="crispEdges"/><rect x="240" y="120" width="20" height="20" fill="rgb(0,0,0)" fill-opacity="1.0" shape-rendering="crispEdges"/><rect x="280" y="120" width="20" height="20" fill="rgb(0,0,0)" fill-opacity="1.0" shape-rendering="crispEdges"/><rect x="340" y="120" width="20" height="20" fill="rgb(0,0,0)" fill-opacity="1.0" shape-rendering="crispEdges"/><rect x="400" y="120" width="20" height="20" fill="rgb(0,0,0)" fill-opacity="1.0" shape-rendering="crispEdges"/><rect x="240" y="140" width="20" height="20" fill="rgb(0,0,0)" fill-opacity="1.0" shape-rendering="crispEdges"/><rect x="260" y="140" width="20" height="20" fill="rgb(0,0,0)" fill-opacity="1.0" shape-rendering="crispEdges"/><rect x="280" y="140" width="20" height="20" fill="rgb(0,0,0)" fill-opacity="1.0" shape-rendering="crispEdges"/><rect x="320" y="140" width="20" height="20" fill="rgb(0,0,0)" fill-opacity="1.0" shape-rendering="crispEdges"/><rect x="340" y="140" width="20" height="20" fill="rgb(0,0,0)" fill-opacity="1.0" shape-rendering="crispEdges"/><rect x="360" y="140" width="20" height="20" fill="rgb(0,0,0)" fill-opacity="1.0" shape-rendering="crispEdges"/><rect x="380" y="140" width="20" height="20" fill="rgb(0,0,0)" fill-opacity="1.0" shape-rendering="crispEdges"/><rect x="240" y="160" width="20" height="20" fill="rgb(0,0,0)" fill-opacity="1.0" shape-rendering="crispEdges"/><rect x="300" y="160" width="20" height="20" fill="rgb(0,0,0)" fill-opacity="1.0" shape-rendering="crispEdges"/><rect x="320" y="160" width="20" height="20" fill="rgb(0,0,0)" fill-opacity="1.0" shape-rendering="crispEdges"/><rect x="380" y="160" width="20" height="20" fill="rgb(0,0,0)" fill-opacity="1.0" shape-rendering="crispEdges"/><rect x="400" y="160" width="20" height="20" fill="rgb(0,0,0)" fill-opacity="1.0" shape-rendering="crispEdges"/><rect x="240" y="180" width="20" height="20" fill="rgb(0,0,0)" fill-opacity="1.0" shape-rendering="crispEdges"/><rect x="260" y="180" width="20" height="20" fill="rgb(0,0,0)" fill-opacity="1.0" shape-rendering="crispEdges"/><rect x="280" y="180" width="20" height="20" fill="rgb(0,0,0)" fill-opacity="1.0" shape-rendering="crispEdges"/><rect x="340" y="180" width="20" height="20" fill="rgb(0,0,0)" fill-opacity="1.0" shape-rendering="crispEdges"/><rect x="360" y="180" width="20" height="20" fill="rgb(0,0,0)" fill-opacity="1.0" shape-rendering="crispEdges"/><rect x="380" y="180" width="20" height="20" fill="rgb(0,0,0)" fill-opacity="1.0" shape-rendering="crispEdges"/><rect x="400" y="180" width="20" height="20" fill="rgb(0,0,0)" fill-opacity="1.0" shape-rendering="crispEdges"/><rect x="240" y="200" width="20" height="20" fill="rgb(0,0,0)" fill-opacity="1.0" shape-rendering="crispEdges"/><rect x="280" y="200" width="20" height="20" fill="rgb(0,0,0)" fill-opacity="1.0" shape-rendering="crispEdges"/><rect x="320" y="200" width="20" height="20" fill="rgb(0,0,0)" fill-opacity="1.0" shape-rendering="crispEdges"/><rect x="360" y="200" width="20" height="20" fill="rgb(0,0,0)" fill-opacity="1.0" shape-rendering="crispEdges"/><rect x="400" y="200" width="20" height="20" fill="rgb(0,0,0)" fill-opacity="1.0" shape-rendering="crispEdges"/><rect x="240" y="220" width="20" height="20" fill="rgb(0,0,0)" fill-opacity="1.0" shape-rendering="crispEdges"/><rect x="280" y="220" width="20" height="20" fill="rgb(0,0,0)" fill-opacity="1.0" shape-rendering="crispEdges"/><rect x="400" y="220" width="20" height="20" fill="rgb(0,0,0)" fill-opacity="1.0" shape-rendering="crispEdges"/><rect x="80" y="240" width="20" height="20" fill="rgb(0,0,0)" fill-opacity="1.0" shape-rendering="crispEdges"/><rect x="120" y="240" width="20" height="20" fill="rgb(0,0,0)" fill-opacity="1.0" shape-rendering="crispEdges"/><rect x="140" y="240" width="20" height="20" fill="rgb(0,0,0)" fill-opacity="1.0" shape-rendering="crispEdges"/><rect x="160" y="240" width="20" height="20" fill="rgb(0,0,0)" fill-opacity="1.0" shape-rendering="crispEdges"/><rect x="180" y="240" width="20" height="20" fill="rgb(0,0,0)" fill-opacity="1.0" shape-rendering="crispEdges"/><rect x="200" y="240" width="20" height="20" fill="rgb(0,0,0)" fill-opacity="1.0" shape-rendering="crispEdges"/><rect x="280" y="240" width="20" height="20" fill="rgb(0,0,0)" fill-opacity="1.0" shape-rendering="crispEdges"/><rect x="360" y="240" width="20" height="20" fill="rgb(0,0,0)" fill-opacity="1.0" shape-rendering="crispEdges"/><rect x="380" y="240" width="20" height="20" fill="rgb(0,0,0)" fill-opacity="1.0" shape-rendering="crispEdges"/><rect x="400" y="240" width="20" height="20" fill="rgb(0,0,0)" fill-opacity="1.0" shape-rendering="crispEdges"/><rect x="440" y="240" width="20" height="20" fill="rgb(0,0,0)" fill-opacity="1.0" shape-rendering="crispEdges"/><rect x="460" y="240" width="20" height="20" fill="rgb(0,0,0)" fill-opacity="1.0" shape-rendering="crispEdges"/><rect x="480" y="240" width="20" height="20" fill="rgb(0,0,0)" fill-opacity="1.0" shape-rendering="crispEdges"/><rect x="500" y="240" width="20" height="20" fill="rgb(0,0,0)" fill-opacity="1.0" shape-rendering="crispEdges"/><rect x="520" y="240" width="20" height="20" fill="rgb(0,0,0)" fill-opacity="1.0" shape-rendering="crispEdges"/><rect x="100" y="260" width="20" height="20" fill="rgb(0,0,0)" fill-opacity="1.0" shape-rendering="crispEdges"/><rect x="140" y="260" width="20" height="20" fill="rgb(0,0,0)" fill-opacity="1.0" shape-rendering="crispEdges"/><rect x="180" y="260" width="20" height="20" fill="rgb(0,0,0)" fill-opacity="1.0" shape-rendering="crispEdges"/><rect x="220" y="260" width="20" height="20" fill="rgb(0,0,0)" fill-opacity="1.0" shape-rendering="crispEdges"/><rect x="320" y="260" width="20" height="20" fill="rgb(0,0,0)" fill-opacity="1.0" shape-rendering="crispEdges"/><rect x="360" y="260" width="20" height="20" fill="rgb(0,0,0)" fill-opacity="1.0" shape-rendering="crispEdges"/><rect x="380" y="260" width="20" height="20" fill="rgb(0,0,0)" fill-opacity="1.0" shape-rendering="crispEdges"/><rect x="400" y="260" width="20" height="20" fill="rgb(0,0,0)" fill-opacity="1.0" shape-rendering="crispEdges"/><rect x="420" y="260" width="20" height="20" fill="rgb(0,0,0)" fill-opacity="1.0" shape-rendering="crispEdges"/><rect x="560" y="260" width="20" height="20" fill="rgb(0,0,0)" fill-opacity="1.0" shape-rendering="crispEdges"/><rect x="120" y="280" width="20" height="20" fill="rgb(0,0,0)" fill-opacity="1.0" shape-rendering="crispEdges"/><rect x="140" y="280" width="20" height="20" fill="rgb(0,0,0)" fill-opacity="1.0" shape-rendering="crispEdges"/><rect x="180" y="280" width="20" height="20" fill="rgb(0,0,0)" fill-opacity="1.0" shape-rendering="crispEdges"/><rect x="200" y="280" width="20" height="20" fill="rgb(0,0,0)" fill-opacity="1.0" shape-rendering="crispEdges"/><rect x="220" y="280" width="20" height="20" fill="rgb(0,0,0)" fill-opacity="1.0" shape-rendering="crispEdges"/><rect x="240" y="280" width="20" height="20" fill="rgb(0,0,0)" fill-opacity="1.0" shape-rendering="crispEdges"/><rect x="260" y="280" width="20" height="20" fill="rgb(0,0,0)" fill-opacity="1.0" shape-rendering="crispEdges"/><rect x="280" y="280" width="20" height="20" fill="rgb(0,0,0)" fill-opacity="1.0" shape-rendering="crispEdges"/><rect x="340" y="280" width="20" height="20" fill="rgb(0,0,0)" fill-opacity="1.0" shape-rendering="crispEdges"/><rect x="360" y="280" width="20" height="20" fill="rgb(0,0,0)" fill-opacity="1.0" shape-rendering="crispEdges"/><rect x="380" y="280" width="20" height="20" fill="rgb(0,0,0)" fill-opacity="1.0" shape-rendering="crispEdges"/><rect x="420" y="280" width="20" height="20" fill="rgb(0,0,0)" fill-opacity="1.0" shape-rendering="crispEdges"/><rect x="440" y="280" width="20" height="20" fill="rgb(0,0,0)" fill-opacity="1.0" shape-rendering="crispEdges"/><rect x="480" y="280" width="20" height="20" fill="rgb(0,0,0)" fill-opacity="1.0" shape-rendering="crispEdges"/><rect x="520" y="280" width="20" height="20" fill="rgb(0,0,0)" fill-opacity="1.0" shape-rendering="crispEdges"/><rect x="80" y="300" width="20" height="20" fill="rgb(0,0,0)" fill-opacity="1.0" shape-rendering="crispEdges"/><rect x="160" y="300" width="20" height="20" fill="rgb(0,0,0)" fill-opacity="1.0" shape-rendering="crispEdges"/><rect x="240" y="300" width="20" height="20" fill="rgb(0,0,0)" fill-opacity="1.0" shape-rendering="crispEdges"/><rect x="300" y="300" width="20" height="20" fill="rgb(0,0,0)" fill-opacity="1.0" shape-rendering="crispEdges"/><rect x="360" y="300" width="20" height="20" fill="rgb(0,0,0)" fill-opacity="1.0" shape-rendering="crispEdges"/><rect x="400" y="300" width="20" height="20" fill="rgb(0,0,0)" fill-opacity="1.0" shape-rendering="crispEdges"/><rect x="460" y="300" width="20" height="20" fill="rgb(0,0,0)" fill-opacity="1.0" shape-rendering="crispEdges"/><rect x="80" y="320" width="20" height="20" fill="rgb(0,0,0)" fill-opacity="1.0" shape-rendering="crispEdges"/><rect x="100" y="320" width="20" height="20" fill="rgb(0,0,0)" fill-opacity="1.0" shape-rendering="crispEdges"/><rect x="120" y="320" width="20" height="20" fill="rgb(0,0,0)" fill-opacity="1.0" shape-rendering="crispEdges"/><rect x="140" y="320" width="20" height="20" fill="rgb(0,0,0)" fill-opacity="1.0" shape-rendering="crispEdges"/><rect x="180" y="320" width="20" height="20" fill="rgb(0,0,0)" fill-opacity="1.0" shape-rendering="crispEdges"/><rect x="200" y="320" width="20" height="20" fill="rgb(0,0,0)" fill-opacity="1.0" shape-rendering="crispEdges"/><rect x="260" y="320" width="20" height="20" fill="rgb(0,0,0)" fill-opacity="1.0" shape-rendering="crispEdges"/><rect x="320" y="320" width="20" height="20" fill="rgb(0,0,0)" fill-opacity="1.0" shape-rendering="crispEdges"/><rect x="360" y="320" width="20" height="20" fill="rgb(0,0,0)" fill-opacity="1.0" shape-rendering="crispEdges"/><rect x="380" y="320" width="20" height="20" fill="rgb(0,0,0)" fill-opacity="1.0" shape-rendering="crispEdges"/><rect x="440" y="320" width="20" height="20" fill="rgb(0,0,0)" fill-opacity="1.0" shape-rendering="crispEdges"/><rect x="460" y="320" width="20" height="20" fill="rgb(0,0,0)" fill-opacity="1.0" shape-rendering="crispEdges"/><rect x="480" y="320" width="20" height="20" fill="rgb(0,0,0)" fill-opacity="1.0" shape-rendering="crispEdges"/><rect x="500" y="320" width="20" height="20" fill="rgb(0,0,0)" fill-opacity="1.0" shape-rendering="crispEdges"/><rect x="540" y="320" width="20" height="20" fill="rgb(0,0,0)" fill-opacity="1.0" shape-rendering="crispEdges"/><rect x="560" y="320" width="20" height="20" fill="rgb(0,0,0)" fill-opacity="1.0" shape-rendering="crispEdges"/><rect x="80" y="340" width="20" height="20" fill="rgb(0,0,0)" fill-opacity="1.0" shape-rendering="crispEdges"/><rect x="100" y="340" width="20" height="20" fill="rgb(0,0,0)" fill-opacity="1.0" shape-rendering="crispEdges"/><rect x="120" y="340" width="20" height="20" fill="rgb(0,0,0)" fill-opacity="1.0" shape-rendering="crispEdges"/><rect x="220" y="340" width="20" height="20" fill="rgb(0,0,0)" fill-opacity="1.0" shape-rendering="crispEdges"/><rect x="360" y="340" width="20" height="20" fill="rgb(0,0,0)" fill-opacity="1.0" shape-rendering="crispEdges"/><rect x="420" y="340" width="20" height="20" fill="rgb(0,0,0)" fill-opacity="1.0" shape-rendering="crispEdges"/><rect x="440" y="340" width="20" height="20" fill="rgb(0,0,0)" fill-opacity="1.0" shape-rendering="crispEdges"/><rect x="460" y="340" width="20" height="20" fill="rgb(0,0,0)" fill-opacity="1.0" shape-rendering="crispEdges"/><rect x="480" y="340" width="20" height="20" fill="rgb(0,0,0)" fill-opacity="1.0" shape-rendering="crispEdges"/><rect x="540" y="340" width="20" height="20" fill="rgb(0,0,0)" fill-opacity="1.0" shape-rendering="crispEdges"/><rect x="80" y="360" width="20" height="20" fill="rgb(0,0,0)" fill-opacity="1.0" shape-rendering="crispEdges"/><rect x="140" y="360" width="20" height="20" fill="rgb(0,0,0)" fill-opacity="1.0" shape-rendering="crispEdges"/><rect x="160" y="360" width="20" height="20" fill="rgb(0,0,0)" fill-opacity="1.0" shape-rendering="crispEdges"/><rect x="200" y="360" width="20" height="20" fill="rgb(0,0,0)" fill-opacity="1.0" shape-rendering="crispEdges"/><rect x="280" y="360" width="20" height="20" fill="rgb(0,0,0)" fill-opacity="1.0" shape-rendering="crispEdges"/><rect x="300" y="360" width="20" height="20" fill="rgb(0,0,0)" fill-opacity="1.0" shape-rendering="crispEdges"/><rect x="320" y="360" width="20" height="20" fill="rgb(0,0,0)" fill-opacity="1.0" shape-rendering="crispEdges"/><rect x="380" y="360" width="20" height="20" fill="rgb(0,0,0)" fill-opacity="1.0" shape-rendering="crispEdges"/><rect x="420" y="360" width="20" height="20" fill="rgb(0,0,0)" fill-opacity="1.0" shape-rendering="crispEdges"/><rect x="440" y="360" width="20" height="20" fill="rgb(0,0,0)" fill-opacity="1.0" shape-rendering="crispEdges"/><rect x="480" y="360" width="20" height="20" fill="rgb(0,0,0)" fill-opacity="1.0" shape-rendering="crispEdges"/><rect x="520" y="360" width="20" height="20" fill="rgb(0,0,0)" fill-opacity="1.0" shape-rendering="crispEdges"/><rect x="560" y="360" width="20" height="20" fill="rgb(0,0,0)" fill-opacity="1.0" shape-rendering="crispEdges"/><rect x="80" y="380" width="20" height="20" fill="rgb(0,0,0)" fill-opacity="1.0" shape-rendering="crispEdges"/><rect x="220" y="380" width="20" height="20" fill="rgb(0,0,0)" fill-opacity="1.0" shape-rendering="crispEdges"/><rect x="240" y="380" width="20" height="20" fill="rgb(0,0,0)" fill-opacity="1.0" shape-rendering="crispEdges"/><rect x="260" y="380" width="20" height="20" fill="rgb(0,0,0)" fill-opacity="1.0" shape-rendering="crispEdges"/><rect x="300" y="380" width="20" height="20" fill="rgb(0,0,0)" fill-opacity="1.0" shape-rendering="crispEdges"/><rect x="400" y="380" width="20" height="20" fill="rgb(0,0,0)" fill-opacity="1.0" shape-rendering="crispEdges"/><rect x="540" y="380" width="20" height="20" fill="rgb(0,0,0)" fill-opacity="1.0" shape-rendering="crispEdges"/><rect x="560" y="380" width="20" height="20" fill="rgb(0,0,0)" fill-opacity="1.0" shape-rendering="crispEdges"/><rect x="80" y="400" width="20" height="20" fill="rgb(0,0,0)" fill-opacity="1.0" shape-rendering="crispEdges"/><rect x="120" y="400" width="20" height="20" fill="rgb(0,0,0)" fill-opacity="1.0" shape-rendering="crispEdges"/><rect x="160" y="400" width="20" height="20" fill="rgb(0,0,0)" fill-opacity="1.0" shape-rendering="crispEdges"/><rect x="180" y="400" width="20" height="20" fill="rgb(0,0,0)" fill-opacity="1.0" shape-rendering="crispEdges"/><rect x="200" y="400" width="20" height="20" fill="rgb(0,0,0)" fill-opacity="1.0" shape-rendering="crispEdges"/><rect x="240" y="400" width="20" height="20" fill="rgb(0,0,0)" fill-opacity="1.0" shape-rendering="crispEdges"/><rect x="260" y="400" width="20" height="20" fill="rgb(0,0,0)" fill-opacity="1.0" shape-rendering="crispEdges"/><rect x="280" y="400" width="20" height="20" fill="rgb(0,0,0)" fill-opacity="1.0" shape-rendering="crispEdges"/><rect x="300" y="400" width="20" height="20" fill="rgb(0,0,0)" fill-opacity="1.0" shape-rendering="crispEdges"/><rect x="380" y="400" width="20" height="20" fill="rgb(0,0,0)" fill-opacity="1.0" shape-rendering="crispEdges"/><rect x="400" y="400" width="20" height="20" fill="rgb(0,0,0)" fill-opacity="1.0" shape-rendering="crispEdges"/><rect x="420" y="400" width="20" height="20" fill="rgb(0,0,0)" fill-opacity="1.0" shape-rendering="crispEdges"/><rect x="440" y="400" width="20" height="20" fill="rgb(0,0,0)" fill-opacity="1.0" shape-rendering="crispEdges"/><rect x="460" y="400" width="20" height="20" fill="rgb(0,0,0)" fill-opacity="1.0" shape-rendering="crispEdges"/><rect x="480" y="400" width="20" height="20" fill="rgb(0,0,0)" fill-opacity="1.0" shape-rendering="crispEdges"/><rect x="500" y="400" width="20" height="20" fill="rgb(0,0,0)" fill-opacity="1.0" shape-rendering="crispEdges"/><rect x="560" y="400" width="20" height="20" fill="rgb(0,0,0)" fill-opacity="1.0" shape-rendering="crispEdges"/><rect x="240" y="420" width="20" height="20" fill="rgb(0,0,0)" fill-opacity="1.0" shape-rendering="crispEdges"/><rect x="280" y="420" width="20" height="20" fill="rgb(0,0,0)" fill-opacity="1.0" shape-rendering="crispEdges"/><rect x="320" y="420" width="20" height="20" fill="rgb(0,0,0)" fill-opacity="1.0" shape-rendering="crispEdges"/><rect x="340" y="420" width="20" height="20" fill="rgb(0,0,0)" fill-opacity="1.0" shape-rendering="crispEdges"/><rect x="400" y="420" width="20" height="20" fill="rgb(0,0,0)" fill-opacity="1.0" shape-rendering="crispEdges"/><rect x="480" y="420" width="20" height="20" fill="rgb(0,0,0)" fill-opacity="1.0" shape-rendering="crispEdges"/><rect x="560" y="420" width="20" height="20" fill="rgb(0,0,0)" fill-opacity="1.0" shape-rendering="crispEdges"/><rect x="260" y="440" width="20" height="20" fill="rgb(0,0,0)" fill-opacity="1.0" shape-rendering="crispEdges"/><rect x="280" y="440" width="20" height="20" fill="rgb(0,0,0)" fill-opacity="1.0" shape-rendering="crispEdges"/><rect x="340" y="440" width="20" height="20" fill="rgb(0,0,0)" fill-opacity="1.0" shape-rendering="crispEdges"/><rect x="360" y="440" width="20" height="20" fill="rgb(0,0,0)" fill-opacity="1.0" shape-rendering="crispEdges"/><rect x="380" y="440" width="20" height="20" fill="rgb(0,0,0)" fill-opacity="1.0" shape-rendering="crispEdges"/><rect x="400" y="440" width="20" height="20" fill="rgb(0,0,0)" fill-opacity="1.0" shape-rendering="crispEdges"/><rect x="440" y="440" width="20" height="20" fill="rgb(0,0,0)" fill-opacity="1.0" shape-rendering="crispEdges"/><rect x="480" y="440" width="20" height="20" fill="rgb(0,0,0)" fill-opacity="1.0" shape-rendering="crispEdges"/><rect x="520" y="440" width="20" height="20" fill="rgb(0,0,0)" fill-opacity="1.0" shape-rendering="crispEdges"/><rect x="540" y="440" width="20" height="20" fill="rgb(0,0,0)" fill-opacity="1.0" shape-rendering="crispEdges"/><rect x="560" y="440" width="20" height="20" fill="rgb(0,0,0)" fill-opacity="1.0" shape-rendering="crispEdges"/><rect x="240" y="460" width="20" height="20" fill="rgb(0,0,0)" fill-opacity="1.0" shape-rendering="crispEdges"/><rect x="260" y="460" width="20" height="20" fill="rgb(0,0,0)" fill-opacity="1.0" shape-rendering="crispEdges"/><rect x="280" y="460" width="20" height="20" fill="rgb(0,0,0)" fill-opacity="1.0" shape-rendering="crispEdges"/><rect x="320" y="460" width="20" height="20" fill="rgb(0,0,0)" fill-opacity="1.0" shape-rendering="crispEdges"/><rect x="340" y="460" width="20" height="20" fill="rgb(0,0,0)" fill-opacity="1.0" shape-rendering="crispEdges"/><rect x="400" y="460" width="20" height="20" fill="rgb(0,0,0)" fill-opacity="1.0" shape-rendering="crispEdges"/><rect x="480" y="460" width="20" height="20" fill="rgb(0,0,0)" fill-opacity="1.0" shape-rendering="crispEdges"/><rect x="500" y="460" width="20" height="20" fill="rgb(0,0,0)" fill-opacity="1.0" shape-rendering="crispEdges"/><rect x="240" y="480" width="20" height="20" fill="rgb(0,0,0)" fill-opacity="1.0" shape-rendering="crispEdges"/><rect x="260" y="480" width="20" height="20" fill="rgb(0,0,0)" fill-opacity="1.0" shape-rendering="crispEdges"/><rect x="320" y="480" width="20" height="20" fill="rgb(0,0,0)" fill-opacity="1.0" shape-rendering="crispEdges"/><rect x="360" y="480" width="20" height="20" fill="rgb(0,0,0)" fill-opacity="1.0" shape-rendering="crispEdges"/><rect x="400" y="480" width="20" height="20" fill="rgb(0,0,0)" fill-opacity="1.0" shape-rendering="crispEdges"/><rect x="420" y="480" width="20" height="20" fill="rgb(0,0,0)" fill-opacity="1.0" shape-rendering="crispEdges"/><rect x="440" y="480" width="20" height="20" fill="rgb(0,0,0)" fill-opacity="1.0" shape-rendering="crispEdges"/><rect x="460" y="480" width="20" height="20" fill="rgb(0,0,0)" fill-opacity="1.0" shape-rendering="crispEdges"/><rect x="480" y="480" width="20" height="20" fill="rgb(0,0,0)" fill-opacity="1.0" shape-rendering="crispEdges"/><rect x="500" y="480" width="20" height="20" fill="rgb(0,0,0)" fill-opacity="1.0" shape-rendering="crispEdges"/><rect x="240" y="500" width="20" height="20" fill="rgb(0,0,0)" fill-opacity="1.0" shape-rendering="crispEdges"/><rect x="260" y="500" width="20" height="20" fill="rgb(0,0,0)" fill-opacity="1.0" shape-rendering="crispEdges"/><rect x="280" y="500" width="20" height="20" fill="rgb(0,0,0)" fill-opacity="1.0" shape-rendering="crispEdges"/><rect x="380" y="500" width="20" height="20" fill="rgb(0,0,0)" fill-opacity="1.0" shape-rendering="crispEdges"/><rect x="400" y="500" width="20" height="20" fill="rgb(0,0,0)" fill-opacity="1.0" shape-rendering="crispEdges"/><rect x="420" y="500" width="20" height="20" fill="rgb(0,0,0)" fill-opacity="1.0" shape-rendering="crispEdges"/><rect x="460" y="500" width="20" height="20" fill="rgb(0,0,0)" fill-opacity="1.0" shape-rendering="crispEdges"/><rect x="480" y="500" width="20" height="20" fill="rgb(0,0,0)" fill-opacity="1.0" shape-rendering="crispEdges"/><rect x="500" y="500" width="20" height="20" fill="rgb(0,0,0)" fill-opacity="1.0" shape-rendering="crispEdges"/><rect x="540" y="500" width="20" height="20" fill="rgb(0,0,0)" fill-opacity="1.0" shape-rendering="crispEdges"/><rect x="560" y="500" width="20" height="20" fill="rgb(0,0,0)" fill-opacity="1.0" shape-rendering="crispEdges"/><rect x="240" y="520" width="20" height="20" fill="rgb(0,0,0)" fill-opacity="1.0" shape-rendering="crispEdges"/><rect x="280" y="520" width="20" height="20" fill="rgb(0,0,0)" fill-opacity="1.0" shape-rendering="crispEdges"/><rect x="300" y="520" width="20" height="20" fill="rgb(0,0,0)" fill-opacity="1.0" shape-rendering="crispEdges"/><rect x="320" y="520" width="20" height="20" fill="rgb(0,0,0)" fill-opacity="1.0" shape-rendering="crispEdges"/><rect x="440" y="520" width="20" height="20" fill="rgb(0,0,0)" fill-opacity="1.0" shape-rendering="crispEdges"/><rect x="460" y="520" width="20" height="20" fill="rgb(0,0,0)" fill-opacity="1.0" shape-rendering="crispEdges"/><rect x="480" y="520" width="20" height="20" fill="rgb(0,0,0)" fill-opacity="1.0" shape-rendering="crispEdges"/><rect x="520" y="520" width="20" height="20" fill="rgb(0,0,0)" fill-opacity="1.0" shape-rendering="crispEdges"/><rect x="560" y="520" width="20" height="20" fill="rgb(0,0,0)" fill-opacity="1.0" shape-rendering="crispEdges"/><rect x="300" y="540" width="20" height="20" fill="rgb(0,0,0)" fill-opacity="1.0" shape-rendering="crispEdges"/><rect x="360" y="540" width="20" height="20" fill="rgb(0,0,0)" fill-opacity="1.0" shape-rendering="crispEdges"/><rect x="380" y="540" width="20" height="20" fill="rgb(0,0,0)" fill-opacity="1.0" shape-rendering="crispEdges"/><rect x="400" y="540" width="20" height="20" fill="rgb(0,0,0)" fill-opacity="1.0" shape-rendering="crispEdges"/><rect x="440" y="540" width="20" height="20" fill="rgb(0,0,0)" fill-opacity="1.0" shape-rendering="crispEdges"/><rect x="480" y="540" width="20" height="20" fill="rgb(0,0,0)" fill-opacity="1.0" shape-rendering="crispEdges"/><rect x="500" y="540" width="20" height="20" fill="rgb(0,0,0)" fill-opacity="1.0" shape-rendering="crispEdges"/><rect x="520" y="540" width="20" height="20" fill="rgb(0,0,0)" fill-opacity="1.0" shape-rendering="crispEdges"/><rect x="540" y="540" width="20" height="20" fill="rgb(0,0,0)" fill-opacity="1.0" shape-rendering="crispEdges"/><rect x="240" y="560" width="20" height="20" fill="rgb(0,0,0)" fill-opacity="1.0" shape-rendering="crispEdges"/><rect x="300" y="560" width="20" height="20" fill="rgb(0,0,0)" fill-opacity="1.0" shape-rendering="crispEdges"/><rect x="400" y="560" width="20" height="20" fill="rgb(0,0,0)" fill-opacity="1.0" shape-rendering="crispEdges"/><rect x="500" y="560" width="20" height="20" fill="rgb(0,0,0)" fill-opacity="1.0" shape-rendering="crispEdges"/><rect x="520" y="560" width="20" height="20" fill="rgb(0,0,0)" fill-opacity="1.0" shape-rendering="crispEdges"/><rect x="540" y="560" width="20" height="20" fill="rgb(0,0,0)" fill-opacity="1.0" shape-rendering="crispEdges"/><rect x="560" y="560" width="20" height="20" fill="rgb(0,0,0)" fill-opacity="1.0" shape-rendering="crispEdges"/><rect x="80" y="80" width="140" height="140" fill="rgb(0,0,0)" fill-opacity="1.0" shape-rendering="crispEdges"/><rect x="100.0" y="100.0" width="100.0" height="100.0" fill="rgb(255,255,255)" fill-opacity="1.0" shape-rendering="crispEdges"/><rect x="440" y="80" width="140" height="140" fill="rgb(0,0,0)" fill-opacity="1.0" shape-rendering="crispEdges"/><rect x="460.0" y="100.0" width="100.0" height="100.0" fill="rgb(255,255,255)" fill-opacity="1.0" shape-rendering="crispEdges"/><rect x="120" y="120" width="60" height="60" fill="rgb(0,0,0)" fill-opacity="1.0" shape-rendering="crispEdges"/><rect x="480" y="120" width="60" height="60" fill="rgb(0,0,0)" fill-opacity="1.0" shape-rendering="crispEdges"/><rect x="80" y="440" width="140" height="140" fill="rgb(0,0,0)" fill-opacity="1.0" shape-rendering="crispEdges"/><rect x="100.0" y="460.0" width="100.0" height="100.0" fill="rgb(255,255,255)" fill-opacity="1.0" shape-rendering="crispEdges"/><rect x="120" y="480" width="60" height="60" fill="rgb(0,0,0)" fill-opacity="1.0" shape-rendering="crispEdges"/></svg>
    
    <!-- Weather Section -->
    <text x="180" y="137" font-size="18">12°C</text>
    <text x="255" y="140" font-size="24">14°C</text>
    <text x="350" y="137" font-size="18">21°C</text>
    <text x="285" y="160" font-size="18" text-anchor="middle">Light rain</text>
    <svg x="235" y="10" width="100px" height="100px" viewBox="0 0 24 24" fill="none" xmlns="http://www.w3.org/2000/svg">
        <path d="M4 14.7519C3.37037 13.8768 3 12.8059 3 11.6493C3 9.20008 4.8 6.9375 7.5 6.5C8.34694 4.48637 10.3514 3 12.6893 3C15.684 3 18.1317 5.32251 18.3 8.25C19.8893 8.94488 21 10.6503 21 12.4969C21 13.5693 20.6254 14.5541 20 15.3275M12.5 12.9995L10.5 21.0008M8.5 11.9995L6.5 20.0008M16.5 12L14.5 20.0013" stroke="#000000" stroke-width="2" stroke-linecap="round" stroke-linejoin="round"/>
    </svg>

    <rect x="0" y="175" width="410" height="305" fill="#ffffff" stroke="#000000" stroke-width="2"/>
    <text x="10" y="200" font-size="24">Upozornění</text>
    <!-- Example notification content max 36-->
    <text x="10" y="230" font-size="18">Miluj Klarku</text>
    <text x="10" y="260" font-size="18">Miluj Danu</text>
    <text x="10" y="290" font-size="18">Kup citronovku</text>
    <text x="10" y="320" font-size="18"/>
    <text x="10" y="350" font-size="18"/>
    <text x="10" y="380" font-size="18"/>
    <text x="10" y="410" font-size="18"/>
    <text x="10" y="440" font-size="18"/>
    <text x="10" y="470" font-size="18"/>

    <!-- Calendar Section -->
    <g id="dnes">
        <rect x="410" y="0" width="390" height="220" fill="#ffffff" stroke="#000000" stroke-width="2"/>

        <text x="430" y="30" font-size="24" id="den">Dnes</text>
        <text x="570" y="30" font-size="24" id="vtydnu">Čtvrtek</text>
        <text x="790" y="30" font-size="24" text-anchor="end" id="datum">4.7</text>

        <!-- max 25 characters -> 11 time + 14 characters -->
        <text x="430" y="70" font-size="24">16:00-22:00 Wild</text>
        <text x="430" y="100" font-size="24"/>
        <text x="430" y="130" font-size="24"/>
        <text x="430" y="160" font-size="24"/>
        <text x="430" y="190" font-size="24"/>
        <text x="790" y="210" font-size="18" text-anchor="end">Prokop</text>
    </g>

    <g id="zitra">
        <rect x="410" y="220" width="390" height="130" fill="#ffffff" stroke="#000000" stroke-width="2"/>

        <text x="430" y="250" font-size="18">Zítra</text>
        <text x="570" y="250" font-size="18">Pátek</text>
        <text x="790" y="250" font-size="18" text-anchor="end">5.7</text>

        <text x="430" y="280" font-size="18">All day      Karlovy Vary</text>
        <text x="430" y="305" font-size="18"/>
        <text x="430" y="330" font-size="18"/>
        <text x="790" y="340" font-size="18" text-anchor="end">Den slovanských věrozvěstů</text>
    </g>

    
    <rect x="410" y="350" width="390" height="130" fill="#ffffff" stroke="#000000" stroke-width="2"/>
    
    <text x="430" y="380" font-size="18">Pozítří</text>
    <text x="570" y="380" font-size="18">Sobota</text>
    <text x="790" y="380" font-size="18" text-anchor="end">6.7</text>
    
    <text x="430" y="410" font-size="18">09:00-22:00 Wild</text>
    <text x="430" y="435" font-size="18"/>
    <text x="430" y="460" font-size="18"/>
    <text x="790" y="470" font-size="18" text-anchor="end">Upálení mistra Jana Husa</text>
    
  </svg>